<svg id="calendar" xmlns="http://www.w3.org/2000/svg" viewBox="0 0 28 28">
        <path fill-rule="evenodd" clip-rule="evenodd" d="M5.833 5.833c-.644 0-1.166.523-1.166 1.167v16.333c0 .645.522 1.167 1.166 1.167h16.334c.644 0 1.166-.522 1.166-1.167V7c0-.644-.522-1.167-1.166-1.167H5.833zM2.333 7a3.5 3.5 0 013.5-3.5h16.334a3.5 3.5 0 013.5 3.5v16.333a3.5 3.5 0 01-3.5 3.5H5.833a3.5 3.5 0 01-3.5-3.5V7z"></path>
        <path fill-rule="evenodd" clip-rule="evenodd" d="M18.667 1.167c.644 0 1.166.522 1.166 1.166V7A1.167 1.167 0 0117.5 7V2.333c0-.644.522-1.166 1.167-1.166zm-9.334 0c.645 0 1.167.522 1.167 1.166V7a1.167 1.167 0 11-2.333 0V2.333c0-.644.522-1.166 1.166-1.166zm-7 10.5c0-.645.523-1.167 1.167-1.167h21a1.167 1.167 0 110 2.333h-21a1.167 1.167 0 01-1.167-1.166z"></path>
    </svg>