<svg id="clock" xmlns="http://www.w3.org/2000/svg" viewBox="0 0 28 28">
        <path fill-rule="evenodd" clip-rule="evenodd" d="M14 3.5C8.2 3.5 3.5 8.201 3.5 14S8.2 24.5 14 24.5c5.799 0 10.5-4.701 10.5-10.5S19.799 3.5 14 3.5zM1.166 14C1.166 6.912 6.912 1.167 14 1.167c7.087 0 12.833 5.745 12.833 12.833S21.088 26.833 14 26.833 1.166 21.088 1.166 14z"></path>
        <path fill-rule="evenodd" clip-rule="evenodd" d="M14 5.833c.644 0 1.166.523 1.166 1.167v6.279l4.022 2.01a1.167 1.167 0 01-1.043 2.088l-4.667-2.333A1.167 1.167 0 0112.833 14V7c0-.644.522-1.167 1.167-1.167z"></path>
    </svg>