<?xml version="1.0" encoding="UTF-8"?>
<svg xmlns="http://www.w3.org/2000/svg" xmlns:xlink="http://www.w3.org/1999/xlink" viewBox="0 0 28 28" width="28px" height="28px">
<g id="surface257967127">
<path style=" stroke:none;fill-rule:nonzero;fill:rgb(100%,100%,100%);fill-opacity:1;" d="M 14 1.679688 C 7.195312 1.679688 1.679688 7.195312 1.679688 14 C 1.679688 20.175781 6.230469 25.277344 12.160156 26.167969 L 12.160156 17.265625 L 9.109375 17.265625 L 9.109375 14.027344 L 12.160156 14.027344 L 12.160156 11.871094 C 12.160156 8.304688 13.898438 6.738281 16.863281 6.738281 C 18.28125 6.738281 19.035156 6.84375 19.390625 6.890625 L 19.390625 9.71875 L 17.367188 9.71875 C 16.105469 9.71875 15.667969 10.910156 15.667969 12.257812 L 15.667969 14.027344 L 19.355469 14.027344 L 18.855469 17.265625 L 15.667969 17.265625 L 15.667969 26.195312 C 21.679688 25.378906 26.320312 20.238281 26.320312 14 C 26.320312 7.195312 20.804688 1.679688 14 1.679688 Z M 14 1.679688 "/>
</g>
</svg>
