<?xml version="1.0" encoding="UTF-8"?>
<svg xmlns="http://www.w3.org/2000/svg" xmlns:xlink="http://www.w3.org/1999/xlink" viewBox="0 0 28 28" width="28px" height="28px">
<g id="surface257979626">
<path style=" stroke:none;fill-rule:nonzero;fill:rgb(100%,100%,100%);fill-opacity:1;" d="M 9.332031 3.5 C 6.117188 3.5 3.5 6.117188 3.5 9.332031 L 3.5 18.667969 C 3.5 21.882812 6.117188 24.5 9.332031 24.5 L 18.667969 24.5 C 21.882812 24.5 24.5 21.882812 24.5 18.667969 L 24.5 9.332031 C 24.5 6.117188 21.882812 3.5 18.667969 3.5 Z M 9.332031 5.832031 L 18.667969 5.832031 C 20.597656 5.832031 22.167969 7.402344 22.167969 9.332031 L 22.167969 18.667969 C 22.167969 20.597656 20.597656 22.167969 18.667969 22.167969 L 9.332031 22.167969 C 7.402344 22.167969 5.832031 20.597656 5.832031 18.667969 L 5.832031 9.332031 C 5.832031 7.402344 7.402344 5.832031 9.332031 5.832031 Z M 19.832031 7 C 19.1875 7 18.667969 7.523438 18.667969 8.167969 C 18.667969 8.8125 19.1875 9.332031 19.832031 9.332031 C 20.476562 9.332031 21 8.8125 21 8.167969 C 21 7.523438 20.476562 7 19.832031 7 Z M 14 8.167969 C 10.785156 8.167969 8.167969 10.785156 8.167969 14 C 8.167969 17.214844 10.785156 19.832031 14 19.832031 C 17.214844 19.832031 19.832031 17.214844 19.832031 14 C 19.832031 10.785156 17.214844 8.167969 14 8.167969 Z M 14 10.5 C 15.929688 10.5 17.5 12.070312 17.5 14 C 17.5 15.929688 15.929688 17.5 14 17.5 C 12.070312 17.5 10.5 15.929688 10.5 14 C 10.5 12.070312 12.070312 10.5 14 10.5 Z M 14 10.5 "/>
</g>
</svg>
